PathFileType	4	(X/Y/Z)	C:/Users/beibeiliu/ov580/test_trc/capture2\sequence.25_training_dense_right.trc
DataRate	CameraRate	NumFrames	NumMarkers	Units	OrigDataRate	OrigDataStartFrame	OrigNumFrames
120	120	18	19	mm	120	172	343
Frame#	Time	ThumbCMC			ThumbMCP			ThumbIP			ThumbTip			IndexMCP			IndexPIP			IndexTip			MiddleMCP			MiddlePIP			MiddleTip			RingMCP			RingPIP			RingTip			PinkyMCP			PinkyPIP			PinkyTip			BackHand1			BackHand2			BackHand3	
		X0	Y0	Z0	X1	Y1	Z1	X2	Y2	Z2	X3	Y3	Z3	X4	Y4	Z4	X5	Y5	Z5	X6	Y6	Z6	X7	Y7	Z7	X8	Y8	Z8	X9	Y9	Z9	X10	Y10	Z10	X11	Y11	Z11	X12	Y12	Z12	X13	Y13	Z13	X14	Y14	Z14	X15	Y15	Z15	X16	Y16	Z16	X17	Y17	Z17	X18	Y18	Z18	
171	1.425	102.067	21.2193	6.04639	94.3937	1.60658	-9.08576	91.1508	-12.7251	-34.8816	90.9969	-24.6427	-52.7838	117.335	-11.5199	-53.6234	113.712	-36.6078	-36.3887	114.491	-13.0463	-11.1196	136.922	-21.5982	-46.1541	128.391	-37.9344	-20.3749	125.714	-7.19529	0.599836	157.121	-21.2751	-40.3979	140.332	-39.3717	-19.1797	137.172	-12.3105	3.65393	183.382	-12.9702	-40.3978	186.982	-28.1701	-48.436	196.817	-47.8047	-67.2719	162.639	29.0139	-15.3331	162.111	40.264	11.2562	130.073	42.7372	-5.14546	
172	1.43333	104.169	25.6243	6.52909	92.1029	6.41664	-10.1332	83.6941	-6.99092	-35.6699	87.0046	-18.4065	-55.8059	113.117	-4.02643	-53.8479	105.225	-30.3083	-36.9411	110.346	-7.0867	-10.8312	130.638	-15.5481	-47.8493	118.412	-32.4169	-22.5297	123.183	-4.74852	-1.79879	150.203	-20.7047	-42.2298	138.717	-38.3927	-22.1006	130.433	-12.1368	-0.108187	181.927	-11.1653	-35.7029	184.94	-30.6925	-49.9938	187.626	-48.4725	-67.5124	163.131	29.5654	-16.304	161.149	41.4782	11.3907	135.045	45.0849	-4.54987	
173	1.44167	105.25	32.03	8.28954	92.0517	13.3622	-9.86849	81.5796	1.84634	-35.6387	81.4411	-10.6503	-56.6218	109.694	0.415987	-55.7111	104.122	-24.1294	-40.3329	111.608	-3.23947	-12.7815	130.837	-11.0667	-48.5066	115.288	-27.5797	-25.815	120.188	3.01294	-4.35382	147.674	-14.887	-43.1897	131.013	-31.8419	-24.1414	128.899	-5.92945	-0.257163	178.241	-9.13653	-37.2169	177.536	-25.3317	-51.6657	183.083	-43.6083	-70.3014	162.208	32.093	-13.5307	163.9	45.3351	13.6896	131.402	50.0111	-5.76167	
174	1.45	102.842	38.4165	9.65564	89.7253	19.7928	-13.1513	80.5551	10.295	-32.6015	76.6581	-1.31702	-56.0087	108.292	8.88188	-57.1854	99.0297	-14.9604	-43.1671	107.888	4.86153	-14.2281	129.556	-2.65932	-49.9451	114.617	-21.1564	-30.4443	115.071	8.9026	-6.20156	145.114	-9.15576	-45.5167	126.742	-26.1199	-22.3995	128.2	-1.50689	0.159916	173.524	-4.88836	-41.5647	173.978	-21.7417	-54.644	175.81	-40.2472	-74.3003	162.892	37.8453	-15.9073	165.57	45.8391	14.975	133.843	53.8464	-2.94338	
175	1.45833	102.2	43.6715	8.42096	87.6255	27.5483	-13.7508	76.9286	20.3951	-37.0527	78.1663	10.489	-55.4367	108.383	20.343	-57.5424	97.0986	-5.94819	-46.6474	102.641	13.029	-16.8762	124.328	7.67041	-52.8284	108.531	-11.7759	-29.8156	118.217	12.9466	-7.80943	141.132	-3.39558	-48.0774	123.135	-18.303	-27.9367	123.787	1.84715	-5.03252	171.056	-0.162205	-47.1053	167.941	-14.5119	-61.09	174.36	-30.1155	-77.5344	164.603	41.8438	-13.4111	161.344	48.9911	15.9857	135.522	59.9584	-4.20273	
176	1.46667	100.863	47.9554	9.94554	86.1653	35.1767	-13.6937	74.9509	29.6315	-39.6441	77.5392	21.7559	-59.9579	106.583	28.7494	-59.8263	92.9005	4.40737	-49.9617	99.4825	16.827	-20.0757	122.288	14.5214	-55.8623	107.741	-3.66345	-35.3662	116.716	21.1111	-10.2019	135.282	8.0585	-52.8711	121.174	-9.7511	-36.7867	123.088	10.8531	-5.87852	167.159	11.9216	-49.4376	168.65	-3.99187	-62.434	171.167	-17.5556	-81.6214	160.05	46.8926	-17.7677	160.678	54.423	16.4875	131.271	63.4816	-1.78549	
177	1.475	95.9658	51.7887	12.2901	80.9027	40.5092	-12.6743	77.5235	38.1463	-40.8689	69.6462	33.5227	-61.8782	99.3053	41.3683	-60.2411	94.2696	12.933	-51.0492	99.6631	24.177	-22.0789	122.34	29.0146	-56.9463	104.468	5.90155	-39.663	113.172	30.1677	-11.5965	139.012	18.209	-54.4844	122.19	-3.08803	-39.5178	120.705	15.7212	-9.83382	166.319	22.6529	-49.6367	162.802	13.1116	-66.9958	163.685	-0.149345	-91.0709	156.28	57.2558	-11.9656	159.043	59.1254	18.1049	127.185	71.6781	2.64774	
178	1.48333	95.7486	54.7928	13.9299	79.8645	47.4428	-15.6863	69.8884	47.7265	-40.2327	68.7867	46.3543	-62.9986	98.1464	54.5963	-57.1286	91.2957	23.7793	-56.6133	97.3895	31.4949	-22.4542	118.311	40.6281	-57.4372	104.408	14.5943	-46.6417	111.135	36.3592	-13.3265	132.713	30.4553	-57.7749	122.519	6.13239	-44.0312	120.753	20.5402	-13.3034	160.333	37.7037	-50.7542	159.623	28.1002	-70.4994	164.911	20.0369	-92.6599	151.93	63.0356	-11.9682	156.285	63.1195	17.6159	125.918	73.5778	4.11856	
179	1.49167	92.1601	59.1044	13.1483	79.8586	52.9315	-11.936	72.5258	55.1732	-35.0627	71.2224	57.4478	-59.992	98.7341	62.484	-59.3277	87.3002	35.6571	-57.0875	98.5785	34.7705	-27.062	117.555	53.3202	-57.0839	107.456	23.5494	-49.8338	110.911	37.0486	-14.6013	135.662	42.5265	-57.9343	117.896	18.9369	-47.557	118.771	30.0743	-15.1398	157.976	50.2626	-54.0114	158.211	44.4333	-71.0705	163.558	39.9575	-97.0154	152.133	68.9049	-7.48254	153.887	64.1845	23.0515	122.416	79.1669	9.96897	
180	1.5	91.4479	60.5732	16.2175	75.6028	57.4044	-8.35642	71.0562	64.8757	-36.2228	65.6567	68.7556	-58.8884	98.6111	76.2869	-51.9182	90.5095	45.2827	-58.6039	93.3739	40.4923	-25.8755	114.98	62.5163	-55.819	103.549	35.0399	-50.0994	109.081	42.8495	-14.1089	130.512	57.9507	-55.259	118.422	27.675	-48.4395	117.025	34.0263	-18.1602	158.088	62.7087	-46.6964	159.523	60.371	-70.7447	163.747	57.9125	-95.5416	151.228	77.2298	-6.81634	151.357	68.807	28.3351	120.082	83.4517	15.4725	
181	1.50833	87.4295	64.1155	16.1629	73.4327	63.9949	-9.67138	67.2788	70.6347	-32.4573	66.9247	77.6528	-55.8216	93.3108	85.7096	-48.9827	87.2346	55.9132	-58.3083	92.204	45.7558	-29.3016	115.421	74.0263	-52.2038	103.64	43.4747	-51.0609	103.33	48.1542	-13.3346	133.978	67.5141	-53.8269	119.436	38.0531	-51.7107	112.604	41.8362	-20.1417	158.407	73.3106	-46.9974	156.886	73.3953	-69.1786	161.588	77.1178	-89.8047	143.46	82.9421	1.63636	145.452	73.0619	28.7432	116.844	84.0826	18.6421	
182	1.51667	82.6277	65.9136	19.7091	71.7199	65.3621	-5.26496	63.6417	79.3991	-34.1343	63.9531	86.4752	-55.4387	89.3729	92.1536	-48.5215	86.0055	64.007	-58.7473	91.6347	49.6324	-31.0701	110.968	82.7006	-48.434	103.559	51.7481	-52.8981	99.8568	51.6034	-12.4778	128.253	78.0557	-49.9124	116.249	46.1587	-53.1679	114.895	45.2688	-18.8594	155.158	82.6567	-44.5403	153.446	83.6397	-65.9209	158.531	89.7945	-85.6439	142.024	89.1789	1.97321	145.494	71.865	31.994	112.369	89.5072	23.0316	
183	1.525	83.5491	66.2621	21.7182	69.0549	69.3933	-5.16891	59.6984	81.5896	-28.0301	59.3899	91.277	-50.7113	89.7568	98.4387	-40.6771	79.3261	71.9577	-56.4464	83.072	51.7417	-30.9195	109.698	86.7216	-46.5457	98.8934	55.4069	-50.1613	101.103	53.8812	-12.6358	124.46	81.5243	-52.0701	111.474	52.3921	-51.1889	109.018	49.2235	-19.6818	153.18	85.0159	-39.5149	152.646	89.4202	-62.6963	153.577	98.955	-86.8682	139.746	91.008	6.04817	142.086	73.2125	34.6783	108.553	90.5957	24.7741	
184	1.53333	78.3443	69.1557	23.383	67.8901	73.1741	-2.5827	57.7022	85.308	-25.3156	58.7216	94.9981	-45.2291	81.6112	101.082	-38.3979	75.7147	73.9251	-53.4788	81.9417	54.1986	-29.067	103.894	90.269	-45.2963	96.5468	61.9713	-50.1042	96.4274	55.1143	-10.0821	120.239	86.6406	-45.6979	105.903	59.2174	-50.7005	107.058	51.5721	-17.5178	145.622	89.8642	-36.3634	151.228	93.8125	-60.2434	154.051	101.644	-82.1501	134.522	90.9813	9.05898	136.107	76.7744	34.919	106.638	89.4297	27.9515	
185	1.54167	78.0526	67.0187	28.1629	61.2905	71.388	3.6581	56.5474	85.4912	-19.1462	53.4781	97.6017	-40.8596	77.8272	103.684	-35.3284	70.4821	80.7949	-51.1183	78.5699	56.6167	-23.2634	94.9679	94.6483	-42.5424	90.0067	63.6097	-45.3183	92.0185	56.7571	-11.9211	114.708	88.4281	-46.6609	105.722	63.0393	-51.2578	100.111	54.0403	-17.1677	140.805	93.1461	-33.4858	143.127	99.5358	-58.8559	147.747	105.598	-79.297	131.62	93.9654	9.5855	136.453	73.0537	38.5519	103.915	89.6848	33.4889	
186	1.55	75.3648	65.5984	32.1054	58.4899	72.5194	6.29815	52.4279	88.4395	-16.3532	47.3712	99.6831	-35.5185	73.0685	106.293	-27.3613	64.579	81.5536	-46.1033	72.8586	58.5625	-23.0407	91.8376	98.4499	-36.2137	82.3839	69.3274	-46.0369	87.6783	57.8091	-7.14841	111.715	91.9804	-43.9157	100.778	65.5488	-48.2226	97.0422	55.1183	-16.1782	140.34	96.8469	-34.9907	134.698	102.635	-55.234	138.155	112.265	-75.5942	128.41	93.3079	14.3592	135.474	75.9538	39.4709	100.934	93.4787	32.9859	
187	1.55833	73.388	64.4823	35.2922	58.4905	73.4787	8.79085	46.0589	86.3664	-10.6456	40.5091	99.789	-29.8855	72.0744	106.929	-24.5929	58.7192	80.4024	-43.0515	70.4356	57.9255	-22.0484	88.5157	98.3828	-33.5323	76.856	67.4127	-39.7505	85.5552	58.3559	-5.69706	104.958	94.2548	-41.1246	93.384	69.1727	-46.6718	94.1869	55.9177	-12.5272	135.2	98.9074	-34.8982	133.485	104.574	-56.3268	133.857	116.31	-77.2366	129.498	93.6605	16.1693	131.899	77.4906	38.9268	98.6763	91.8982	35.182	
188	1.56667	72.369	64.2988	36.9193	51.5015	71.7759	13.8128	43.6139	89.8554	-8.38702	36.5142	101.138	-25.9275	64.6217	107.028	-23.1943	57.3619	80.6946	-39.8253	67.1651	58.1034	-19.7341	81.992	98.7425	-33.7882	77.6594	69.4158	-41.8158	83.3069	57.7158	-3.55049	100.095	95.5224	-37.3697	90.5261	67.959	-46.1992	92.7774	54.5323	-12.6561	127.028	98.7048	-30.3847	124.841	107.018	-53.4928	125.449	119.361	-75.25	125.931	91.1758	17.2413	128.802	78.0957	39.2714	101.46	89.1753	39.4546	
